<mxfile host="app.diagrams.net" modified="2023-08-30T11:02:27.464Z" agent="Mozilla/5.0 (Windows NT 10.0; Win64; x64) AppleWebKit/537.36 (KHTML, like Gecko) Chrome/116.0.0.0 Safari/537.36" etag="fETbXJY2z6gUDWzGBJ1i" version="21.7.0" type="device">
  <diagram name="Page-1" id="McdJuczjEffqz_6UoNn5">
    <mxGraphModel dx="1290" dy="534" grid="1" gridSize="10" guides="1" tooltips="1" connect="1" arrows="1" fold="1" page="1" pageScale="1" pageWidth="850" pageHeight="1100" math="0" shadow="0">
      <root>
        <mxCell id="0" />
        <mxCell id="1" parent="0" />
        <mxCell id="H1vpS9QQzf7doZmdfUMT-5" value="" style="edgeStyle=orthogonalEdgeStyle;rounded=0;orthogonalLoop=1;jettySize=auto;html=1;" parent="1" source="H1vpS9QQzf7doZmdfUMT-2" target="H1vpS9QQzf7doZmdfUMT-4" edge="1">
          <mxGeometry relative="1" as="geometry" />
        </mxCell>
        <mxCell id="H1vpS9QQzf7doZmdfUMT-2" value="&lt;font style=&quot;font-size: 14px;&quot;&gt;Query input&lt;/font&gt;" style="shape=parallelogram;perimeter=parallelogramPerimeter;whiteSpace=wrap;html=1;fixedSize=1;" parent="1" vertex="1">
          <mxGeometry x="385" y="260" width="112.5" height="40" as="geometry" />
        </mxCell>
        <mxCell id="H1vpS9QQzf7doZmdfUMT-7" value="" style="edgeStyle=orthogonalEdgeStyle;rounded=0;orthogonalLoop=1;jettySize=auto;html=1;" parent="1" source="H1vpS9QQzf7doZmdfUMT-4" target="H1vpS9QQzf7doZmdfUMT-6" edge="1">
          <mxGeometry relative="1" as="geometry" />
        </mxCell>
        <mxCell id="H1vpS9QQzf7doZmdfUMT-4" value="&lt;font style=&quot;font-size: 14px;&quot;&gt;NL processing&lt;/font&gt;" style="whiteSpace=wrap;html=1;" parent="1" vertex="1">
          <mxGeometry x="381.25" y="330" width="120" height="50" as="geometry" />
        </mxCell>
        <mxCell id="H1vpS9QQzf7doZmdfUMT-9" value="" style="edgeStyle=orthogonalEdgeStyle;rounded=0;orthogonalLoop=1;jettySize=auto;html=1;" parent="1" source="H1vpS9QQzf7doZmdfUMT-6" target="H1vpS9QQzf7doZmdfUMT-8" edge="1">
          <mxGeometry relative="1" as="geometry" />
        </mxCell>
        <mxCell id="H1vpS9QQzf7doZmdfUMT-6" value="&lt;font style=&quot;font-size: 14px;&quot;&gt;Is query&lt;br&gt;&amp;nbsp;valid?&lt;/font&gt;" style="rhombus;whiteSpace=wrap;html=1;" parent="1" vertex="1">
          <mxGeometry x="390" y="400" width="102.5" height="60" as="geometry" />
        </mxCell>
        <mxCell id="H1vpS9QQzf7doZmdfUMT-11" value="" style="edgeStyle=orthogonalEdgeStyle;rounded=0;orthogonalLoop=1;jettySize=auto;html=1;" parent="1" source="H1vpS9QQzf7doZmdfUMT-8" target="H1vpS9QQzf7doZmdfUMT-10" edge="1">
          <mxGeometry relative="1" as="geometry" />
        </mxCell>
        <mxCell id="H1vpS9QQzf7doZmdfUMT-8" value="&lt;font style=&quot;font-size: 14px;&quot;&gt;Response&lt;/font&gt;" style="whiteSpace=wrap;html=1;" parent="1" vertex="1">
          <mxGeometry x="381.25" y="490" width="120" height="40" as="geometry" />
        </mxCell>
        <mxCell id="17jc52hQaCPBW5WIYF3u-50" value="" style="edgeStyle=orthogonalEdgeStyle;rounded=0;orthogonalLoop=1;jettySize=auto;html=1;" parent="1" source="H1vpS9QQzf7doZmdfUMT-10" target="17jc52hQaCPBW5WIYF3u-49" edge="1">
          <mxGeometry relative="1" as="geometry" />
        </mxCell>
        <mxCell id="H1vpS9QQzf7doZmdfUMT-10" value="&lt;font style=&quot;font-size: 14px;&quot;&gt;want to enter &lt;br&gt;another &lt;br&gt;query?&lt;/font&gt;" style="rhombus;whiteSpace=wrap;html=1;" parent="1" vertex="1">
          <mxGeometry x="341.56" y="550" width="199.37" height="80" as="geometry" />
        </mxCell>
        <mxCell id="H1vpS9QQzf7doZmdfUMT-12" value="&lt;font style=&quot;font-size: 14px;&quot;&gt;End&lt;/font&gt;" style="ellipse;whiteSpace=wrap;html=1;" parent="1" vertex="1">
          <mxGeometry x="400" y="720" width="80" height="40" as="geometry" />
        </mxCell>
        <mxCell id="H1vpS9QQzf7doZmdfUMT-14" value="Yes" style="text;html=1;align=center;verticalAlign=middle;resizable=0;points=[];autosize=1;strokeColor=none;fillColor=none;" parent="1" vertex="1">
          <mxGeometry x="400" y="460" width="40" height="30" as="geometry" />
        </mxCell>
        <mxCell id="H1vpS9QQzf7doZmdfUMT-15" value="" style="endArrow=classic;html=1;rounded=0;entryX=0;entryY=0.5;entryDx=0;entryDy=0;" parent="1" target="H1vpS9QQzf7doZmdfUMT-2" edge="1">
          <mxGeometry width="50" height="50" relative="1" as="geometry">
            <mxPoint x="300" y="320" as="sourcePoint" />
            <mxPoint x="470" y="350" as="targetPoint" />
            <Array as="points">
              <mxPoint x="300" y="280" />
            </Array>
          </mxGeometry>
        </mxCell>
        <mxCell id="H1vpS9QQzf7doZmdfUMT-17" value="No" style="text;html=1;align=center;verticalAlign=middle;resizable=0;points=[];autosize=1;strokeColor=none;fillColor=none;" parent="1" vertex="1">
          <mxGeometry x="345" y="430" width="40" height="30" as="geometry" />
        </mxCell>
        <mxCell id="H1vpS9QQzf7doZmdfUMT-20" value="" style="endArrow=classic;html=1;rounded=0;exitX=1;exitY=0.5;exitDx=0;exitDy=0;entryX=1;entryY=0.5;entryDx=0;entryDy=0;" parent="1" source="H1vpS9QQzf7doZmdfUMT-10" target="H1vpS9QQzf7doZmdfUMT-2" edge="1">
          <mxGeometry width="50" height="50" relative="1" as="geometry">
            <mxPoint x="380" y="530" as="sourcePoint" />
            <mxPoint x="430" y="480" as="targetPoint" />
            <Array as="points">
              <mxPoint x="570" y="590" />
              <mxPoint x="570" y="280" />
            </Array>
          </mxGeometry>
        </mxCell>
        <mxCell id="H1vpS9QQzf7doZmdfUMT-21" value="&lt;span style=&quot;color: rgb(0, 0, 0); font-family: Helvetica; font-size: 12px; font-style: normal; font-variant-ligatures: normal; font-variant-caps: normal; font-weight: 400; letter-spacing: normal; orphans: 2; text-align: center; text-indent: 0px; text-transform: none; widows: 2; word-spacing: 0px; -webkit-text-stroke-width: 0px; background-color: rgb(251, 251, 251); text-decoration-thickness: initial; text-decoration-style: initial; text-decoration-color: initial; float: none; display: inline !important;&quot;&gt;Yes&lt;/span&gt;" style="text;whiteSpace=wrap;html=1;" parent="1" vertex="1">
          <mxGeometry x="530" y="550" width="50" height="40" as="geometry" />
        </mxCell>
        <mxCell id="H1vpS9QQzf7doZmdfUMT-22" value="No" style="text;html=1;align=center;verticalAlign=middle;resizable=0;points=[];autosize=1;strokeColor=none;fillColor=none;" parent="1" vertex="1">
          <mxGeometry x="438.74000000000007" y="620" width="40" height="30" as="geometry" />
        </mxCell>
        <mxCell id="H1vpS9QQzf7doZmdfUMT-24" value="Display&amp;nbsp;&amp;nbsp;&lt;br&gt;&quot;Sorry I don&#39;t understand&quot;" style="rounded=0;whiteSpace=wrap;html=1;" parent="1" vertex="1">
          <mxGeometry x="240" y="320" width="92.81" height="50" as="geometry" />
        </mxCell>
        <mxCell id="H1vpS9QQzf7doZmdfUMT-25" value="" style="endArrow=classic;html=1;rounded=0;entryX=0.652;entryY=1.018;entryDx=0;entryDy=0;entryPerimeter=0;exitX=0;exitY=0.5;exitDx=0;exitDy=0;" parent="1" source="H1vpS9QQzf7doZmdfUMT-6" target="H1vpS9QQzf7doZmdfUMT-24" edge="1">
          <mxGeometry width="50" height="50" relative="1" as="geometry">
            <mxPoint x="380" y="430" as="sourcePoint" />
            <mxPoint x="310" y="420" as="targetPoint" />
            <Array as="points">
              <mxPoint x="300" y="430" />
            </Array>
          </mxGeometry>
        </mxCell>
        <mxCell id="17jc52hQaCPBW5WIYF3u-1" value="" style="edgeStyle=orthogonalEdgeStyle;rounded=0;orthogonalLoop=1;jettySize=auto;html=1;" parent="1" source="17jc52hQaCPBW5WIYF3u-2" target="17jc52hQaCPBW5WIYF3u-4" edge="1">
          <mxGeometry relative="1" as="geometry" />
        </mxCell>
        <mxCell id="17jc52hQaCPBW5WIYF3u-2" value="&lt;font style=&quot;font-size: 14px;&quot;&gt;Start&lt;/font&gt;" style="ellipse;whiteSpace=wrap;html=1;" parent="1" vertex="1">
          <mxGeometry x="411.25" y="1040" width="95" height="40" as="geometry" />
        </mxCell>
        <mxCell id="17jc52hQaCPBW5WIYF3u-3" value="" style="edgeStyle=orthogonalEdgeStyle;rounded=0;orthogonalLoop=1;jettySize=auto;html=1;" parent="1" source="17jc52hQaCPBW5WIYF3u-4" target="17jc52hQaCPBW5WIYF3u-6" edge="1">
          <mxGeometry relative="1" as="geometry" />
        </mxCell>
        <mxCell id="17jc52hQaCPBW5WIYF3u-4" value="&lt;font style=&quot;font-size: 14px;&quot;&gt;Query input&lt;/font&gt;" style="shape=parallelogram;perimeter=parallelogramPerimeter;whiteSpace=wrap;html=1;fixedSize=1;" parent="1" vertex="1">
          <mxGeometry x="402.5" y="1120" width="112.5" height="40" as="geometry" />
        </mxCell>
        <mxCell id="17jc52hQaCPBW5WIYF3u-5" value="" style="edgeStyle=orthogonalEdgeStyle;rounded=0;orthogonalLoop=1;jettySize=auto;html=1;" parent="1" source="17jc52hQaCPBW5WIYF3u-6" target="17jc52hQaCPBW5WIYF3u-8" edge="1">
          <mxGeometry relative="1" as="geometry" />
        </mxCell>
        <mxCell id="17jc52hQaCPBW5WIYF3u-6" value="&lt;font style=&quot;font-size: 14px;&quot;&gt;NL processing&lt;/font&gt;" style="whiteSpace=wrap;html=1;" parent="1" vertex="1">
          <mxGeometry x="398.75" y="1190" width="120" height="50" as="geometry" />
        </mxCell>
        <mxCell id="17jc52hQaCPBW5WIYF3u-7" value="" style="edgeStyle=orthogonalEdgeStyle;rounded=0;orthogonalLoop=1;jettySize=auto;html=1;" parent="1" source="17jc52hQaCPBW5WIYF3u-8" target="17jc52hQaCPBW5WIYF3u-10" edge="1">
          <mxGeometry relative="1" as="geometry" />
        </mxCell>
        <mxCell id="17jc52hQaCPBW5WIYF3u-8" value="&lt;font style=&quot;font-size: 14px;&quot;&gt;Is query&lt;br&gt;&amp;nbsp;valid?&lt;/font&gt;" style="rhombus;whiteSpace=wrap;html=1;" parent="1" vertex="1">
          <mxGeometry x="407.5" y="1260" width="102.5" height="60" as="geometry" />
        </mxCell>
        <mxCell id="17jc52hQaCPBW5WIYF3u-9" value="" style="edgeStyle=orthogonalEdgeStyle;rounded=0;orthogonalLoop=1;jettySize=auto;html=1;" parent="1" source="17jc52hQaCPBW5WIYF3u-10" target="17jc52hQaCPBW5WIYF3u-12" edge="1">
          <mxGeometry relative="1" as="geometry" />
        </mxCell>
        <mxCell id="17jc52hQaCPBW5WIYF3u-10" value="&lt;font style=&quot;font-size: 14px;&quot;&gt;Response&lt;/font&gt;" style="whiteSpace=wrap;html=1;" parent="1" vertex="1">
          <mxGeometry x="398.75" y="1370" width="120" height="40" as="geometry" />
        </mxCell>
        <mxCell id="17jc52hQaCPBW5WIYF3u-11" value="" style="edgeStyle=orthogonalEdgeStyle;rounded=0;orthogonalLoop=1;jettySize=auto;html=1;" parent="1" source="17jc52hQaCPBW5WIYF3u-12" target="17jc52hQaCPBW5WIYF3u-13" edge="1">
          <mxGeometry relative="1" as="geometry" />
        </mxCell>
        <mxCell id="17jc52hQaCPBW5WIYF3u-12" value="&lt;font style=&quot;font-size: 14px;&quot;&gt;want to enter &lt;br&gt;another &lt;br&gt;query?&lt;/font&gt;" style="rhombus;whiteSpace=wrap;html=1;" parent="1" vertex="1">
          <mxGeometry x="359.06" y="1440" width="199.37" height="80" as="geometry" />
        </mxCell>
        <mxCell id="17jc52hQaCPBW5WIYF3u-13" value="&lt;font style=&quot;font-size: 14px;&quot;&gt;End&lt;/font&gt;" style="ellipse;whiteSpace=wrap;html=1;" parent="1" vertex="1">
          <mxGeometry x="418.74" y="1560" width="80" height="40" as="geometry" />
        </mxCell>
        <mxCell id="17jc52hQaCPBW5WIYF3u-14" value="Yes" style="text;html=1;align=center;verticalAlign=middle;resizable=0;points=[];autosize=1;strokeColor=none;fillColor=none;" parent="1" vertex="1">
          <mxGeometry x="451.25" y="1330" width="40" height="30" as="geometry" />
        </mxCell>
        <mxCell id="17jc52hQaCPBW5WIYF3u-15" value="" style="endArrow=classic;html=1;rounded=0;entryX=0;entryY=0.5;entryDx=0;entryDy=0;" parent="1" target="17jc52hQaCPBW5WIYF3u-4" edge="1">
          <mxGeometry width="50" height="50" relative="1" as="geometry">
            <mxPoint x="326.25" y="1180" as="sourcePoint" />
            <mxPoint x="496.25" y="1210" as="targetPoint" />
            <Array as="points">
              <mxPoint x="326.25" y="1140" />
            </Array>
          </mxGeometry>
        </mxCell>
        <mxCell id="17jc52hQaCPBW5WIYF3u-16" value="No" style="text;html=1;align=center;verticalAlign=middle;resizable=0;points=[];autosize=1;strokeColor=none;fillColor=none;" parent="1" vertex="1">
          <mxGeometry x="371.25" y="1290" width="40" height="30" as="geometry" />
        </mxCell>
        <mxCell id="17jc52hQaCPBW5WIYF3u-17" value="" style="endArrow=classic;html=1;rounded=0;exitX=1;exitY=0.5;exitDx=0;exitDy=0;entryX=1;entryY=0.5;entryDx=0;entryDy=0;" parent="1" source="17jc52hQaCPBW5WIYF3u-12" target="17jc52hQaCPBW5WIYF3u-4" edge="1">
          <mxGeometry width="50" height="50" relative="1" as="geometry">
            <mxPoint x="406.25" y="1390" as="sourcePoint" />
            <mxPoint x="456.25" y="1340" as="targetPoint" />
            <Array as="points">
              <mxPoint x="596.25" y="1480" />
              <mxPoint x="596.25" y="1140" />
            </Array>
          </mxGeometry>
        </mxCell>
        <mxCell id="17jc52hQaCPBW5WIYF3u-18" value="&lt;span style=&quot;color: rgb(0, 0, 0); font-family: Helvetica; font-size: 12px; font-style: normal; font-variant-ligatures: normal; font-variant-caps: normal; font-weight: 400; letter-spacing: normal; orphans: 2; text-align: center; text-indent: 0px; text-transform: none; widows: 2; word-spacing: 0px; -webkit-text-stroke-width: 0px; background-color: rgb(251, 251, 251); text-decoration-thickness: initial; text-decoration-style: initial; text-decoration-color: initial; float: none; display: inline !important;&quot;&gt;Yes&lt;/span&gt;" style="text;whiteSpace=wrap;html=1;" parent="1" vertex="1">
          <mxGeometry x="566.25" y="1450" width="50" height="40" as="geometry" />
        </mxCell>
        <mxCell id="17jc52hQaCPBW5WIYF3u-19" value="No" style="text;html=1;align=center;verticalAlign=middle;resizable=0;points=[];autosize=1;strokeColor=none;fillColor=none;" parent="1" vertex="1">
          <mxGeometry x="451.25" y="1520" width="40" height="30" as="geometry" />
        </mxCell>
        <mxCell id="17jc52hQaCPBW5WIYF3u-20" value="Display&amp;nbsp;&amp;nbsp;&lt;br&gt;&quot;Sorry I don&#39;t understand&quot;" style="rounded=0;whiteSpace=wrap;html=1;" parent="1" vertex="1">
          <mxGeometry x="266.25" y="1180" width="92.81" height="50" as="geometry" />
        </mxCell>
        <mxCell id="17jc52hQaCPBW5WIYF3u-21" value="" style="endArrow=classic;html=1;rounded=0;entryX=0.652;entryY=1.018;entryDx=0;entryDy=0;entryPerimeter=0;" parent="1" target="17jc52hQaCPBW5WIYF3u-20" edge="1">
          <mxGeometry width="50" height="50" relative="1" as="geometry">
            <mxPoint x="406.25" y="1290" as="sourcePoint" />
            <mxPoint x="336.25" y="1280" as="targetPoint" />
            <Array as="points">
              <mxPoint x="326.25" y="1290" />
            </Array>
          </mxGeometry>
        </mxCell>
        <mxCell id="17jc52hQaCPBW5WIYF3u-22" value="User login" style="rounded=0;whiteSpace=wrap;html=1;" parent="1" vertex="1">
          <mxGeometry x="372.5" y="120" width="73.75" height="30" as="geometry" />
        </mxCell>
        <mxCell id="17jc52hQaCPBW5WIYF3u-23" value="If user&lt;br&gt;&amp;nbsp;valid?" style="rhombus;whiteSpace=wrap;html=1;" parent="1" vertex="1">
          <mxGeometry x="412.5" y="170" width="76.25" height="50" as="geometry" />
        </mxCell>
        <mxCell id="17jc52hQaCPBW5WIYF3u-25" value="" style="endArrow=classic;html=1;rounded=0;exitX=0;exitY=0.5;exitDx=0;exitDy=0;entryX=0;entryY=0.5;entryDx=0;entryDy=0;" parent="1" source="17jc52hQaCPBW5WIYF3u-23" target="17jc52hQaCPBW5WIYF3u-22" edge="1">
          <mxGeometry width="50" height="50" relative="1" as="geometry">
            <mxPoint x="400" y="270" as="sourcePoint" />
            <mxPoint x="450" y="220" as="targetPoint" />
            <Array as="points">
              <mxPoint x="340" y="195" />
              <mxPoint x="340" y="135" />
            </Array>
          </mxGeometry>
        </mxCell>
        <mxCell id="17jc52hQaCPBW5WIYF3u-26" value="No" style="text;html=1;align=center;verticalAlign=middle;resizable=0;points=[];autosize=1;strokeColor=none;fillColor=none;" parent="1" vertex="1">
          <mxGeometry x="336.25" y="170" width="40" height="30" as="geometry" />
        </mxCell>
        <mxCell id="17jc52hQaCPBW5WIYF3u-27" value="&lt;font style=&quot;font-size: 14px;&quot;&gt;Start&lt;/font&gt;" style="ellipse;whiteSpace=wrap;html=1;" parent="1" vertex="1">
          <mxGeometry x="411.24" y="50" width="82.51" height="30" as="geometry" />
        </mxCell>
        <mxCell id="17jc52hQaCPBW5WIYF3u-30" value="" style="endArrow=classic;html=1;rounded=0;exitX=0.269;exitY=1.024;exitDx=0;exitDy=0;exitPerimeter=0;" parent="1" source="17jc52hQaCPBW5WIYF3u-27" target="17jc52hQaCPBW5WIYF3u-22" edge="1">
          <mxGeometry width="50" height="50" relative="1" as="geometry">
            <mxPoint x="350" y="200" as="sourcePoint" />
            <mxPoint x="400" y="150" as="targetPoint" />
          </mxGeometry>
        </mxCell>
        <mxCell id="17jc52hQaCPBW5WIYF3u-31" value="Error message:&lt;br&gt;Enter correct &lt;br&gt;credentials" style="text;html=1;align=center;verticalAlign=middle;resizable=0;points=[];autosize=1;strokeColor=none;fillColor=none;" parent="1" vertex="1">
          <mxGeometry x="240" y="140" width="110" height="60" as="geometry" />
        </mxCell>
        <mxCell id="17jc52hQaCPBW5WIYF3u-32" value="Yes" style="text;html=1;align=center;verticalAlign=middle;resizable=0;points=[];autosize=1;strokeColor=none;fillColor=none;" parent="1" vertex="1">
          <mxGeometry x="452.5" y="210" width="40" height="30" as="geometry" />
        </mxCell>
        <mxCell id="17jc52hQaCPBW5WIYF3u-33" value="Sign up" style="rounded=0;whiteSpace=wrap;html=1;" parent="1" vertex="1">
          <mxGeometry x="480" y="118" width="60" height="32" as="geometry" />
        </mxCell>
        <mxCell id="17jc52hQaCPBW5WIYF3u-34" value="" style="endArrow=classic;html=1;rounded=0;exitX=0.768;exitY=0.998;exitDx=0;exitDy=0;exitPerimeter=0;entryX=0.139;entryY=-0.032;entryDx=0;entryDy=0;entryPerimeter=0;" parent="1" source="17jc52hQaCPBW5WIYF3u-27" target="17jc52hQaCPBW5WIYF3u-33" edge="1">
          <mxGeometry width="50" height="50" relative="1" as="geometry">
            <mxPoint x="444" y="90" as="sourcePoint" />
            <mxPoint x="426" y="130" as="targetPoint" />
          </mxGeometry>
        </mxCell>
        <mxCell id="17jc52hQaCPBW5WIYF3u-35" value="" style="shape=cylinder3;whiteSpace=wrap;html=1;boundedLbl=1;backgroundOutline=1;size=15;" parent="1" vertex="1">
          <mxGeometry x="610" y="150" width="60" height="70" as="geometry" />
        </mxCell>
        <mxCell id="17jc52hQaCPBW5WIYF3u-36" value="" style="endArrow=classic;html=1;rounded=0;exitX=1;exitY=0.5;exitDx=0;exitDy=0;entryX=0.5;entryY=0;entryDx=0;entryDy=0;entryPerimeter=0;" parent="1" source="17jc52hQaCPBW5WIYF3u-33" target="17jc52hQaCPBW5WIYF3u-35" edge="1">
          <mxGeometry width="50" height="50" relative="1" as="geometry">
            <mxPoint x="370" y="260" as="sourcePoint" />
            <mxPoint x="420" y="210" as="targetPoint" />
            <Array as="points">
              <mxPoint x="640" y="134" />
            </Array>
          </mxGeometry>
        </mxCell>
        <mxCell id="17jc52hQaCPBW5WIYF3u-37" value="Database" style="text;html=1;align=center;verticalAlign=middle;resizable=0;points=[];autosize=1;strokeColor=none;fillColor=none;" parent="1" vertex="1">
          <mxGeometry x="670" y="210" width="70" height="30" as="geometry" />
        </mxCell>
        <mxCell id="17jc52hQaCPBW5WIYF3u-38" value="User details&amp;nbsp;" style="text;html=1;align=center;verticalAlign=middle;resizable=0;points=[];autosize=1;strokeColor=none;fillColor=none;" parent="1" vertex="1">
          <mxGeometry x="550" y="100" width="90" height="30" as="geometry" />
        </mxCell>
        <mxCell id="17jc52hQaCPBW5WIYF3u-39" value="" style="endArrow=classic;html=1;rounded=0;entryX=1;entryY=0.5;entryDx=0;entryDy=0;exitX=0;exitY=0;exitDx=0;exitDy=45;exitPerimeter=0;" parent="1" source="17jc52hQaCPBW5WIYF3u-35" target="17jc52hQaCPBW5WIYF3u-23" edge="1">
          <mxGeometry width="50" height="50" relative="1" as="geometry">
            <mxPoint x="610" y="200" as="sourcePoint" />
            <mxPoint x="450" y="200" as="targetPoint" />
          </mxGeometry>
        </mxCell>
        <mxCell id="17jc52hQaCPBW5WIYF3u-41" value="" style="endArrow=classic;html=1;rounded=0;exitX=0.5;exitY=1;exitDx=0;exitDy=0;entryX=0.5;entryY=0;entryDx=0;entryDy=0;" parent="1" source="17jc52hQaCPBW5WIYF3u-22" target="17jc52hQaCPBW5WIYF3u-23" edge="1">
          <mxGeometry width="50" height="50" relative="1" as="geometry">
            <mxPoint x="480" y="180" as="sourcePoint" />
            <mxPoint x="530" y="130" as="targetPoint" />
          </mxGeometry>
        </mxCell>
        <mxCell id="17jc52hQaCPBW5WIYF3u-42" value="" style="endArrow=classic;html=1;rounded=0;exitX=0.25;exitY=1;exitDx=0;exitDy=0;entryX=0.5;entryY=0;entryDx=0;entryDy=0;" parent="1" source="17jc52hQaCPBW5WIYF3u-33" target="17jc52hQaCPBW5WIYF3u-23" edge="1">
          <mxGeometry width="50" height="50" relative="1" as="geometry">
            <mxPoint x="400" y="210" as="sourcePoint" />
            <mxPoint x="450" y="160" as="targetPoint" />
          </mxGeometry>
        </mxCell>
        <mxCell id="17jc52hQaCPBW5WIYF3u-43" value="" style="endArrow=classic;html=1;rounded=0;exitX=0.5;exitY=1;exitDx=0;exitDy=0;" parent="1" source="17jc52hQaCPBW5WIYF3u-23" edge="1">
          <mxGeometry width="50" height="50" relative="1" as="geometry">
            <mxPoint x="280" y="340" as="sourcePoint" />
            <mxPoint x="451" y="260" as="targetPoint" />
          </mxGeometry>
        </mxCell>
        <mxCell id="17jc52hQaCPBW5WIYF3u-45" value="" style="endArrow=classic;html=1;rounded=0;entryX=0.5;entryY=1;entryDx=0;entryDy=0;entryPerimeter=0;" parent="1" target="17jc52hQaCPBW5WIYF3u-35" edge="1">
          <mxGeometry width="50" height="50" relative="1" as="geometry">
            <mxPoint x="440" y="471" as="sourcePoint" />
            <mxPoint x="500" y="260" as="targetPoint" />
            <Array as="points">
              <mxPoint x="640" y="471" />
            </Array>
          </mxGeometry>
        </mxCell>
        <mxCell id="17jc52hQaCPBW5WIYF3u-48" value="Query stored&lt;br&gt;&amp;nbsp;in database" style="text;html=1;align=center;verticalAlign=middle;resizable=0;points=[];autosize=1;strokeColor=none;fillColor=none;" parent="1" vertex="1">
          <mxGeometry x="566.25" y="470" width="90" height="40" as="geometry" />
        </mxCell>
        <mxCell id="17jc52hQaCPBW5WIYF3u-51" value="" style="edgeStyle=orthogonalEdgeStyle;rounded=0;orthogonalLoop=1;jettySize=auto;html=1;" parent="1" source="17jc52hQaCPBW5WIYF3u-49" target="H1vpS9QQzf7doZmdfUMT-12" edge="1">
          <mxGeometry relative="1" as="geometry" />
        </mxCell>
        <mxCell id="17jc52hQaCPBW5WIYF3u-49" value="User Feedback" style="rounded=0;whiteSpace=wrap;html=1;" parent="1" vertex="1">
          <mxGeometry x="390" y="660" width="100" height="30" as="geometry" />
        </mxCell>
        <mxCell id="17jc52hQaCPBW5WIYF3u-52" value="" style="endArrow=classic;html=1;rounded=0;exitX=1;exitY=0.5;exitDx=0;exitDy=0;entryX=0.855;entryY=1;entryDx=0;entryDy=-4.35;entryPerimeter=0;" parent="1" source="17jc52hQaCPBW5WIYF3u-49" target="17jc52hQaCPBW5WIYF3u-35" edge="1">
          <mxGeometry width="50" height="50" relative="1" as="geometry">
            <mxPoint x="430" y="600" as="sourcePoint" />
            <mxPoint x="480" y="550" as="targetPoint" />
            <Array as="points">
              <mxPoint x="661" y="675" />
            </Array>
          </mxGeometry>
        </mxCell>
        <mxCell id="17jc52hQaCPBW5WIYF3u-53" value="User feedback&amp;nbsp; for &lt;br&gt;further&amp;nbsp;analysis and &lt;br&gt;report generation" style="text;html=1;align=center;verticalAlign=middle;resizable=0;points=[];autosize=1;strokeColor=none;fillColor=none;" parent="1" vertex="1">
          <mxGeometry x="545.93" y="670" width="130" height="60" as="geometry" />
        </mxCell>
      </root>
    </mxGraphModel>
  </diagram>
</mxfile>
